<svg width="131" height="131" viewBox="0 0 131 131" fill="none" xmlns="http://www.w3.org/2000/svg">
<path fill-rule="evenodd" clip-rule="evenodd" d="M20.4688 68.9988V86.853C20.4687 89.6921 21.2739 92.473 22.7907 94.8729C24.3076 97.2728 26.4739 99.1933 29.0383 100.412L56.33 113.37C58.3426 114.326 60.5427 114.822 62.7708 114.822C64.9989 114.822 67.1991 114.326 69.2117 113.37L96.5033 100.412C99.0678 99.1933 101.234 97.2728 102.751 94.8729C104.268 92.473 105.073 89.6921 105.073 86.853V69.0043L69.7302 86.6729C67.5695 87.7537 65.1868 88.3164 62.7708 88.3164C60.3549 88.3164 57.9722 87.7537 55.8115 86.6729L20.4688 68.9988Z" fill="white"/>
<path fill-rule="evenodd" clip-rule="evenodd" d="M59.474 18.9077C61.5482 17.8706 63.9935 17.8706 66.0677 18.9077L113.326 42.5368C118.757 45.2496 118.757 53.0004 113.326 55.7187L66.0677 79.3533C63.9935 80.3903 61.5482 80.3903 59.474 79.3533L12.2158 55.7187C6.78471 53.0004 6.78471 45.2496 12.2158 42.5368L59.474 18.9077Z" fill="white"/>
</svg>
